# xmcd CD database file generated by Grip 3.0.0
# 
# Track frame offsets:
#       150
#       19409
#       40017
#       54500
#       72710
#       88386
#       106437
#       127598
#       143296
#       161551
#       175592
#       200929
#       222638
#       240002
#       263694
#       276699
#       298957
#       326545
# 
# Disc length: 4638 seconds
# 
# Revision: 1
# Processed by: cddbd v1.4PL0 Copyright (c) Steve Scherf et al.
# Submitted via: Grip 3.0.0
# 
DISCID=15121c12
DTITLE=Various Artist - The Best Of The East Coast Blues And Roots Music Festival (C
DTITLE=D 2)
DYEAR=2000
DGENRE=Blues
TTITLE0=G Love and Special Sauce - Blues Music
TTITLE1=Tony Joe White - The Delta Singer
TTITLE2=Charlie Musselwhite - The Big Boat
TTITLE3=Backsliders - Hoodoo City
TTITLE4=Keb' Mo' - She Just Wants To Dance
TTITLE5=Marcia Ball - The Story Of My Life
TTITLE6=The Fabulous Thunderbirds - Roll Of The Dice
TTITLE7=Dave Hole - Blues Is The Truth
TTITLE8=Joe Louis Walker - Preacher and The President
TTITLE9=Gil Scott Heron - The Revolution Will Not Be Televised
TTITLE10=Spearhead - Love Is Da Shit
TTITLE11=Burning Spear - As It Is
TTITLE12=Angelique Kidjo - Voodoo Chile (Slight Return)
TTITLE13=Bo Dollis and The Wild Mgnolias - I Walk On Gilded Splinters
TTITLE14=Dr John - Right Place Wrong Time
TTITLE15=Marva Wright - Let Them Talk
TTITLE16=Terrance Simien - Creole Mardi Gras Run
TTITLE17=Alvin Youngblood Heart - Will I Ever Get Back Home?
EXTD=
EXTT0=
EXTT1=
EXTT2=
EXTT3=
EXTT4=
EXTT5=
EXTT6=
EXTT7=
EXTT8=
EXTT9=
EXTT10=
EXTT11=
EXTT12=
EXTT13=
EXTT14=
EXTT15=
EXTT16=
EXTT17=
PLAYORDER=
